<?xml version="1.0" encoding="iso-8859-1"?>
<!-- Uploaded to: SVG Repo, www.svgrepo.com, Generator: SVG Repo Mixer Tools -->
<svg version="1.1" id="Layer_1" xmlns="http://www.w3.org/2000/svg" xmlns:xlink="http://www.w3.org/1999/xlink" 
	 viewBox="0 0 512 512" xml:space="preserve">
<path style="fill:#ECE5DD;" d="M38.806,55.531h434.386c21.398,0,38.808,17.409,38.808,38.806v378.854
	C512,494.591,494.591,512,473.194,512H38.806C17.409,512,0,494.591,0,473.194v-61.15V94.338C0,72.941,17.409,55.531,38.806,55.531z"
	/>
<path style="fill:#D9CBBD;" d="M477.524,94.338v324.719h24.374L512,410.244V94.338c0-21.397-17.409-38.806-38.806-38.806h-34.476
	C460.115,55.531,477.524,72.941,477.524,94.338z"/>
<g>
	<path style="fill:#B39A7C;" d="M512,94.338c0-21.397-17.409-38.806-38.806-38.806H38.806C17.409,55.531,0,72.941,0,94.338v72.812
		v9.524h512V94.338z"/>
	<path style="fill:#B39A7C;" d="M0,94.338c0-21.397,17.409-38.806,38.806-38.806h434.386c21.398,0,38.808,17.409,38.808,38.806
		v72.812v9.524H0V94.338z"/>
</g>
<path style="fill:#957755;" d="M473.194,55.531h-34.107c21.398,0,38.807,17.409,38.807,38.806v82.334H512V94.338
	C512,72.941,494.591,55.531,473.194,55.531z"/>
<g>
	<rect x="0.555" y="225.458" style="fill:#BABABA;" width="463.343" height="16.659"/>
	<rect x="0.555" y="292.095" style="fill:#BABABA;" width="463.343" height="16.659"/>
	<rect x="0.555" y="358.733" style="fill:#BABABA;" width="463.343" height="16.659"/>
	<rect x="0.555" y="425.393" style="fill:#BABABA;" width="399.826" height="16.659"/>
</g>
<rect x="97.735" y="72.602" style="fill:#FF6342;" width="16.659" height="439.398"/>
<g>
	<path style="fill:#FFB656;" d="M357.168,111.284c-26.766-4.788-46.192-28.002-46.192-55.197C310.976,25.16,336.136,0,367.063,0
		c27.195,0,50.409,19.426,55.197,46.192l1.87,10.45h-34.404l-1.833-6.457c-2.634-9.277-11.201-15.755-20.831-15.755
		c-11.941,0-21.657,9.716-21.657,21.657c0,9.638,6.478,18.209,15.754,20.841l6.458,1.833v34.394L357.168,111.284z"/>
	<path style="fill:#FFB656;" d="M246.105,111.284c-26.766-4.788-46.192-28.002-46.192-55.197C199.913,25.16,225.073,0,256,0
		c27.195,0,50.409,19.426,55.197,46.192l1.87,10.45h-34.404l-1.833-6.457C274.197,40.908,265.63,34.43,256,34.43
		c-11.941,0-21.657,9.716-21.657,21.657c0,9.638,6.478,18.209,15.754,20.841l6.458,1.833v34.394L246.105,111.284z"/>
	<path style="fill:#FFB656;" d="M135.043,111.284c-26.766-4.788-46.192-28.002-46.192-55.197C88.85,25.16,114.011,0,144.937,0
		c27.195,0,50.409,19.426,55.197,46.192l1.87,10.45h-34.404l-1.833-6.457c-2.634-9.277-11.201-15.755-20.831-15.755
		c-11.941,0-21.657,9.716-21.657,21.657c0,9.638,6.478,18.209,15.754,20.841l6.458,1.833v34.394L135.043,111.284z"/>
</g>
<path style="fill:#C0AB91;" d="M400.124,433.74c0-12.576,10.231-22.807,22.807-22.807L512,410.244L399.235,512L400.124,433.74z"/>
</svg>