<?xml version="1.0" encoding="iso-8859-1"?>
<!-- Uploaded to: SVG Repo, www.svgrepo.com, Generator: SVG Repo Mixer Tools -->
<svg height="800px" width="800px" version="1.1" id="Layer_1" xmlns="http://www.w3.org/2000/svg" xmlns:xlink="http://www.w3.org/1999/xlink" 
	 viewBox="0 0 512.004 512.004" xml:space="preserve">
<g>
	<g>
		<path style="fill:#CDCDCD;" d="M97.103,361.931c-4.873,0-8.828-3.955-8.828-8.828V291.31c0-4.873,3.955-8.828,8.828-8.828
			s8.828,3.955,8.828,8.828v61.793C105.931,357.976,101.976,361.931,97.103,361.931"/>
		<path style="fill:#CDCDCD;" d="M114.759,335.448h-35.31c-4.873,0-8.828-3.955-8.828-8.828c0-4.873,3.955-8.828,8.828-8.828h35.31
			c4.873,0,8.828,3.955,8.828,8.828C123.586,331.493,119.631,335.448,114.759,335.448"/>
		<path style="fill:#CDCDCD;" d="M379.586,79.448c-4.873,0-8.828-3.955-8.828-8.828V17.655c0-4.873,3.955-8.828,8.828-8.828
			s8.828,3.955,8.828,8.828v52.966C388.414,75.494,384.459,79.448,379.586,79.448"/>
		<path style="fill:#CDCDCD;" d="M132.414,79.448c-4.873,0-8.828-3.955-8.828-8.828V17.655c0-4.873,3.955-8.828,8.828-8.828
			c4.873,0,8.828,3.955,8.828,8.828v52.966C141.241,75.494,137.287,79.448,132.414,79.448"/>
		<path style="fill:#CDCDCD;" d="M167.724,26.483h-35.31c-4.873,0-8.828-3.955-8.828-8.828s3.955-8.828,8.828-8.828h35.31
			c4.873,0,8.828,3.955,8.828,8.828S172.597,26.483,167.724,26.483"/>
		<path style="fill:#CDCDCD;" d="M379.586,26.483h-35.31c-4.873,0-8.828-3.955-8.828-8.828s3.955-8.828,8.828-8.828h35.31
			c4.873,0,8.828,3.955,8.828,8.828S384.459,26.483,379.586,26.483"/>
	</g>
	<path style="fill:#B9A795;" d="M505.64,373.553l-20.374-101.5c-13.524-67.363-9.878-109.542-2.701-177.867
		c1.324-12.562-8.527-23.561-21.222-23.561H0.004v52.127c0,59.18,7.256,91.657,21.61,149.08l0,0
		c2.86,11.449,13.144,19.482,24.947,19.482h104.271c14.204,0,25.724-11.52,25.724-25.724v-80.207h105.931v220.69H0.004v105.931
		h490.655c11.785,0,21.345-9.56,21.345-21.345v-33.933C512.004,428.884,509.877,401.077,505.64,373.553"/>
	<g>
		<path style="fill:#72665D;" d="M97.103,158.897c-4.873,0-8.828-3.955-8.828-8.828v-35.31c0-4.873,3.955-8.828,8.828-8.828
			s8.828,3.955,8.828,8.828v35.31C105.931,154.942,101.976,158.897,97.103,158.897"/>
		<path style="fill:#72665D;" d="M97.103,256c-4.873,0-8.828-3.955-8.828-8.828V220.69c0-4.873,3.955-8.828,8.828-8.828
			s8.828,3.955,8.828,8.828v26.483C105.931,252.045,101.976,256,97.103,256"/>
	</g>
	<g>
		<path style="fill:#62564B;" d="M97.103,220.69L97.103,220.69c-9.71,0-17.655-7.945-17.655-17.655v-35.31
			c0-9.71,7.945-17.655,17.655-17.655l0,0c9.71,0,17.655,7.945,17.655,17.655v35.31C114.759,212.745,106.814,220.69,97.103,220.69"
			/>
		<path style="fill:#62564B;" d="M441.379,308.966c0,29.255-23.711,52.966-52.966,52.966s-52.966-23.711-52.966-52.966
			S359.159,256,388.414,256S441.379,279.711,441.379,308.966"/>
		<path style="fill:#62564B;" d="M379.586,406.069c0,4.873-3.955,8.828-8.828,8.828c-4.873,0-8.828-3.955-8.828-8.828
			s3.955-8.828,8.828-8.828C375.631,397.241,379.586,401.196,379.586,406.069"/>
		<path style="fill:#62564B;" d="M414.897,406.069c0,4.873-3.955,8.828-8.828,8.828s-8.828-3.955-8.828-8.828
			s3.955-8.828,8.828-8.828S414.897,401.196,414.897,406.069"/>
		<path style="fill:#62564B;" d="M361.931,211.862c0,4.873-3.955,8.828-8.828,8.828c-4.873,0-8.828-3.955-8.828-8.828
			c0-4.873,3.955-8.828,8.828-8.828C357.976,203.034,361.931,206.989,361.931,211.862"/>
		<path style="fill:#62564B;" d="M397.241,211.862c0,4.873-3.955,8.828-8.828,8.828s-8.828-3.955-8.828-8.828
			c0-4.873,3.955-8.828,8.828-8.828S397.241,206.989,397.241,211.862"/>
		<path style="fill:#62564B;" d="M432.552,211.862c0,4.873-3.955,8.828-8.828,8.828c-4.873,0-8.828-3.955-8.828-8.828
			c0-4.873,3.955-8.828,8.828-8.828C428.597,203.034,432.552,206.989,432.552,211.862"/>
		<path style="fill:#62564B;" d="M273.655,132.414h-88.276c-4.873,0-8.828-3.955-8.828-8.828s3.955-8.828,8.828-8.828h88.276
			c4.873,0,8.828,3.955,8.828,8.828S278.528,132.414,273.655,132.414"/>
	</g>
	<path style="fill:#EF705D;" d="M167.724,35.31h176.552V0H167.724V35.31z"/>
	<g>
		<path style="fill:#72665D;" d="M406.069,335.448c-2.26,0-4.52-0.865-6.241-2.586l-35.31-35.31c-3.452-3.452-3.452-9.031,0-12.482
			c3.452-3.452,9.031-3.452,12.482,0l35.31,35.31c3.452,3.452,3.452,9.031,0,12.482
			C410.589,334.583,408.329,335.448,406.069,335.448"/>
		<path style="fill:#72665D;" d="M370.759,335.448c-2.26,0-4.52-0.865-6.241-2.586c-3.452-3.452-3.452-9.031,0-12.482l35.31-35.31
			c3.452-3.452,9.031-3.452,12.482,0c3.452,3.452,3.452,9.031,0,12.482L377,332.862
			C375.278,334.583,373.018,335.448,370.759,335.448"/>
	</g>
	<g>
		<path style="fill:#BC5949;" d="M247.172,35.31h17.655V0h-17.655V35.31z"/>
		<path style="fill:#BC5949;" d="M291.31,35.31h17.655V0H291.31V35.31z"/>
		<path style="fill:#BC5949;" d="M203.034,35.31h17.655V0h-17.655V35.31z"/>
	</g>
	<g>
		<path style="fill:#62564B;" d="M176.552,450.207c4.873,0,8.828-3.955,8.828-8.828s-3.955-8.828-8.828-8.828H0v17.655H176.552z"/>
		<path style="fill:#62564B;" d="M88.276,485.517c4.873,0,8.828-3.955,8.828-8.828c0-4.873-3.955-8.828-8.828-8.828H0v17.655H88.276
			z"/>
	</g>
</g>
</svg>